<?xml version="1.0" encoding="utf-8"?>
<!-- Generator: Adobe Illustrator 16.0.0, SVG Export Plug-In . SVG Version: 6.00 Build 0)  -->
<!DOCTYPE svg PUBLIC "-//W3C//DTD SVG 1.1//EN" "http://www.w3.org/Graphics/SVG/1.1/DTD/svg11.dtd">
<svg version="1.1" id="Calque_1" xmlns="http://www.w3.org/2000/svg" xmlns:xlink="http://www.w3.org/1999/xlink" x="0px" y="0px"
	 width="25px" height="25px" viewBox="0 0 25 25" enable-background="new 0 0 25 25" xml:space="preserve">
<g>
	<path d="M15.088,5.589c1.156,0.726,1.967,1.952,2.115,3.376c0.471,0.221,0.994,0.348,1.551,0.348c2.023,0,3.666-1.643,3.666-3.668
		s-1.643-3.668-3.666-3.668C16.746,1.978,15.117,3.591,15.088,5.589z M12.685,13.1c2.026,0,3.668-1.643,3.668-3.668
		c0-2.026-1.643-3.668-3.668-3.668S9.017,7.405,9.017,9.432C9.017,11.457,10.659,13.1,12.685,13.1z M14.24,13.35h-3.112
		c-2.59,0-4.696,2.106-4.696,4.696v3.807l0.009,0.059l0.262,0.083c2.471,0.771,4.619,1.029,6.386,1.029
		c3.451,0,5.453-0.984,5.574-1.047l0.246-0.124h0.025v-3.807C18.938,15.456,16.83,13.35,14.24,13.35z M20.309,9.562h-3.088
		c-0.033,1.235-0.561,2.349-1.396,3.148c2.305,0.685,3.986,2.819,3.986,5.341v1.173c3.051-0.112,4.807-0.976,4.924-1.034
		l0.244-0.124h0.025v-3.808C25.004,11.669,22.898,9.562,20.309,9.562z M6.249,9.312c0.718,0,1.386-0.209,1.951-0.565
		c0.18-1.173,0.809-2.197,1.707-2.896c0.004-0.068,0.01-0.137,0.01-0.206c0-2.025-1.642-3.668-3.667-3.668
		c-2.026,0-3.668,1.643-3.668,3.668S4.222,9.312,6.249,9.312z M9.542,12.711c-0.83-0.796-1.355-1.902-1.394-3.131
		C8.034,9.572,7.921,9.562,7.804,9.562H4.692c-2.589,0-4.696,2.106-4.696,4.696v3.807l0.01,0.06l0.262,0.082
		C2.25,18.826,4.02,19.111,5.556,19.2v-1.148C5.557,15.53,7.24,13.396,9.542,12.711z"/>
</g>
</svg>
